<svg width="227" height="197" viewBox="0 0 227 197" fill="none" xmlns="http://www.w3.org/2000/svg">
<path d="M16.9546 19.8048C42.1852 -5.42586 82.4222 -7.1455 107.653 18.085L113.922 25.4131L120.926 18.085C145.57 -6.55855 183.78 -5.41234 209.12 18.085L210.905 19.8048C235.549 44.4486 229.51 93.7055 206.012 119.045L202.922 122.311L199.481 125.82C186.222 139.136 165.899 157.367 138.512 180.512L122.874 193.624C117.477 198.115 109.623 198.045 104.308 193.457L85.0035 176.7L67.816 161.58C47.3858 143.464 32.0511 129.285 21.8111 119.045C-3.41952 93.8144 -8.27581 45.0355 16.9546 19.8048ZM199.358 28.6124C179.117 9.84292 149.739 9.57686 131.305 28.0049L113.335 46.8087L97.1304 27.8702C77.9237 9.07019 47.0579 10.0061 27.107 29.9571C8.57863 48.4859 11.1778 88.109 31.9624 108.894L35.689 112.572C46.1879 122.82 61.1831 136.561 80.6206 153.74L94.4156 165.858L113.689 182.589L129.246 169.546L140.417 160.042C161.895 141.637 178.185 126.857 189.176 115.826L192.495 112.442L195.486 109.283C215.399 87.8098 218.36 47.5636 200.946 30.1456L199.358 28.6124Z" fill="#262626"/>
</svg>
