<svg width="219" height="191" viewBox="0 0 219 191" fill="none" xmlns="http://www.w3.org/2000/svg">
<path d="M103.667 17.462L109.721 24.5374L116.483 17.462C140.278 -6.3326 177.171 -5.22588 201.637 17.462L203.361 19.1221C227.156 42.9167 221.325 90.4763 198.637 114.943L195.653 118.096L192.331 121.485C179.529 134.341 118.364 186.951 118.364 186.951C113.153 191.288 105.57 191.22 100.438 186.791L81.7986 170.611L65.2032 156.012C45.4771 138.519 30.6704 124.83 20.7832 114.943C-3.57796 90.5814 -8.26633 43.4833 16.0948 19.1221C40.456 -5.23905 79.3059 -6.89914 103.667 17.462Z" fill="#FF0000"/>
</svg>
